<svg xmlns="http://www.w3.org/2000/svg" xml:space="preserve" width="663.23364" height="126.62566" viewBox="0 0 663.23364 126.62566"><defs><clipPath id="a" clipPathUnits="userSpaceOnUse"><path d="M0 841.89h1190.551V0H0Z"/></clipPath></defs><g clip-path="url(#a)" transform="matrix(1.33333 0 0 -1.33333 -188.677 716.566)"><path d="M0 0c-10.754-10.753-28.351-10.753-39.104 0l-19.867 19.867c-10.754 10.753-10.754 28.352-.001 39.105l19.868 19.867c10.753 10.754 28.35 10.754 39.104 0l19.867-19.867c10.753-10.753 10.753-28.352 0-39.105Z" style="fill:#f1291c;fill-opacity:1;fill-rule:nonzero;stroke:none" transform="translate(208.544 450.52)"/><path d="M0 0a2.927 2.927 0 0 0-2.932 2.814 2.93 2.93 0 0 0 .773 2.112 2.92 2.92 0 0 0 2.04.946c1.617.077 2.99-1.193 3.059-2.814A2.94 2.94 0 0 0 0 0" style="fill:#fff;fill-opacity:1;fill-rule:nonzero;stroke:none" transform="translate(177.21 460.756)"/><path d="M0 0c-1.612 0-2.903-.504-3.947-1.542-2.253-2.239-3.435-6.861-3.33-13.013.127-7.584 1.933-22.465 7.898-30.127.968-1.24 2.008-2.232 3.092-2.947 1.05-.695 2.229-1.373 4.069-1.373a9 9 0 0 1 1.594.151c3.421.821 7.706 4.629 10.893 9.696a2.63 2.63 0 0 0 2.233 1.234c.494 0 .978-.14 1.399-.405a2.62 2.62 0 0 0 1.167-1.646 2.6 2.6 0 0 0-.339-1.987c-4.03-6.409-9.351-10.91-14.232-12.039a1 1 0 0 0-.123-.027 14.6 14.6 0 0 0-2.612-.248c-3.149 0-5.371 1.199-6.953 2.245-1.565 1.034-3.026 2.416-4.344 4.106-8.399 10.787-8.973 31.007-9.012 33.276-.09 5.382.684 12.672 4.887 16.844 2.051 2.035 4.621 3.067 7.638 3.067l.49-.001c3.025 0 5.598-1.031 7.648-3.066 4.203-4.172 4.977-11.462 4.887-16.844-.095-5.606-1.123-16.465-6.936-26.201a2.65 2.65 0 0 0-2.265-1.283 2.63 2.63 0 0 0-1.348.372 2.64 2.64 0 0 0-.912 3.614c4.069 6.813 6.036 14.308 6.19 23.589.105 6.154-1.078 10.776-3.33 13.013C3.359-.504 2.07 0 .463 0Z" style="fill:#fff;fill-opacity:1;fill-rule:nonzero;stroke:none" transform="translate(187.899 514.987)"/><path d="m0 0-1.841 27.679L-10.71 0h-9.594l-8.869 27.679L-31.013 0h-9.316l3.905 41.387h11.155l9.762-30.325 9.762 30.325H5.41L9.315 0Z" style="fill:#f1291c;fill-opacity:1;fill-rule:nonzero;stroke:none" transform="translate(506.084 472.073)"/><path d="M0 0h10.072L5.036 13.283Zm16.523-16.989-3.508 9.155H-2.999l-3.452-9.155h-10.016L-.113 24.398h10.298l16.354-41.387z" style="fill:#f1291c;fill-opacity:1;fill-rule:nonzero;stroke:none" transform="translate(535.411 489.062)"/><path d="M0 0h6.169Q7.78 0 9.253.212q1.472.212 2.583.794a4.43 4.43 0 0 1 1.751 1.614q.639 1.033.639 2.726 0 1.64-.639 2.698a4.37 4.37 0 0 1-1.751 1.642q-1.111.581-2.583.794-1.473.211-3.084.212H0Zm15.505-22.863L8.058-7.832H0V-21.38l-7.113-2.383q-2.334-.794-2.334 1.429v40.858h18.45q3.222 0 5.946-.794 2.722-.794 4.724-2.435 2-1.64 3.112-4.101 1.11-2.46 1.111-5.848 0-4.288-1.862-7.091-1.862-2.807-5.029-4.341l8.558-16.777z" style="fill:#f1291c;fill-opacity:1;fill-rule:nonzero;stroke:none" transform="translate(576.251 494.936)"/><path d="M0 0q-2.334-.794-2.334 1.43v33.025h-12.555v7.832h34.727v-7.832H7.113V2.383Z" style="fill:#f1291c;fill-opacity:1;fill-rule:nonzero;stroke:none" transform="translate(619.095 471.173)"/><path d="M0 0c-6.23 0-10.978 6.333-10.978 14.121 0 7.799 4.748 14.113 10.978 14.113 6.256 0 10.996-6.314 10.996-14.113C10.996 6.333 6.256 0 0 0m0 32.108c-13.021 0-20.812-8.056-20.812-17.987 0-9.935 7.791-17.989 20.812-17.989 13.035 0 20.845 8.054 20.845 17.989 0 9.931-7.81 17.987-20.845 17.987" style="fill:#f1291c;fill-opacity:1;fill-rule:nonzero;stroke:none" transform="translate(311.487 475.73)"/><path d="M0 0h13.702v-29.163h10.327V0h11.583v3.981H0Z" style="fill:#f1291c;fill-opacity:1;fill-rule:nonzero;stroke:none" transform="translate(334.116 502.527)"/><path d="M0 0h11.566v-29.163h10.321V0h13.735v3.981H0Z" style="fill:#f1291c;fill-opacity:1;fill-rule:nonzero;stroke:none" transform="translate(373.486 502.527)"/><path d="M0 0v27.191h-9.912V-2.011A3.946 3.946 0 0 1-5.96-5.953h25.345v3.982H1.982A1.976 1.976 0 0 0 0 0" style="fill:#f1291c;fill-opacity:1;fill-rule:nonzero;stroke:none" transform="translate(270.093 479.317)"/><path d="M0 0v-25.262c0-2.179 1.779-3.942 3.958-3.942h27.016v3.91H11.911a1.985 1.985 0 0 0-1.995 1.983v9.758H30.68v3.888H9.916v7.727c0 1.083.888 1.972 1.995 1.972h19.063V3.94H3.947A3.946 3.946 0 0 1 0 0" style="fill:#f1291c;fill-opacity:1;fill-rule:nonzero;stroke:none" transform="translate(414.723 502.568)"/></g></svg>